<svg xmlns="http://www.w3.org/2000/svg" xml:space="preserve" width="2048" height="2048" style="shape-rendering:geometricPrecision;text-rendering:geometricPrecision;image-rendering:optimizeQuality;fill-rule:evenodd;clip-rule:evenodd"><defs><style>.fil0{fill-rule:nonzero}</style></defs><g id="Layer_x0020_1"><path class="fil0" d="M1154 1303h-2c-101 19-202 37-230 18-17-12-20-27-7-47 1-1 2-3 3-4 28-31 46-47 62-62 1-1 2-2 9-8 2-2 5-4 7-5 10-4 28-9 43-10 14-1 28 2 39 11l75 57c30-6 59-11 86-15-30-31-57-62-57-98V844c0-13 11-24 24-24s24 11 24 24v296c0 23 31 53 62 83l7 7c16-2 29-2 40-2 29 0 53 15 66 35 5 9 9 18 10 28s0 21-4 31c-7 16-22 30-46 36v244c0 42-19 70-43 83-10 5-21 8-32 8s-22-3-32-8c-24-13-43-41-43-83v-2l-2-222c-60 9-130 19-195 29-81 12-152 23-177 26-21 2-39-1-53-8-15-7-25-19-31-33-6-13-7-28-5-44 3-19 13-39 29-57 19-21 33-36 47-54 13-17 28-38 48-69 0-31 2-78 4-129 4-87 8-186 2-241-1-13 8-25 21-26s25 8 26 21c6 58 2 160-2 248-2 54-4 103-4 132 0 5-1 10-4 15-23 35-39 59-55 79s-30 36-49 57c-10 11-16 22-17 33-1 6-1 12 1 17 2 4 4 7 9 9 6 3 15 4 26 3 24-3 94-13 175-26 134-20 296-45 333-46 13-2 19-6 21-11 1-2 1-3 1-6s-1-5-3-8c-5-7-13-13-24-13h-3c-11-1-25 0-43 2h-3c-38 5-89 14-140 23zm-63-37-41-32s-1 0-1-1h-7c-8 0-17 3-24 5-2 1-4 3-6 5-12 10-24 22-41 40 26-1 71-9 120-18zm227 98c-15 2-33 4-55 7l2 229v2c0 22 8 36 17 41 3 2 6 2 9 2s6-1 9-2c10-5 17-19 17-41v-238zM1119 328c41 0 78 17 105 43 27 27 43 64 43 105s-17 78-43 105c-27 27-64 43-105 43s-78-17-105-43c-27-27-43-64-43-105s17-78 43-105c27-27 64-43 105-43zm71 77c-18-18-43-29-71-29s-53 11-71 29-29 43-29 71 11 53 29 71 43 29 71 29 53-11 71-29 29-43 29-71-11-53-29-71z"/><path class="fil0" d="M913 773c13 1 23 13 22 26s-13 23-26 22c-43-4-74-5-101-3-21 2-40 5-59 9l-1-1c-3-4-6-9-9-12l5-18c1-3 1-5 2-8v-9c19-4 37-7 58-9 29-2 62-2 109 3z"/><path class="fil0" d="M1199 864c-12-6-17-20-11-32s20-17 32-11c34 17 66 42 89 74 20 28 33 61 33 99 0 7-3 14-8 18l-101 101c-1 3-1 7 1 12 1 3 3 6 5 8s5 3 7 4c9 2 21-2 38-15l101-128c-2-74-27-133-66-178-47-53-114-87-186-101-41-8-81-8-123-7-55 0-107 7-164 6-48-1-94-2-137 11-9-4-20-6-30-6-5 0-9 1-14 2-2-4-5-7-7-11-4-5-8-8-13-12 0 0 1 0 1-1 67-34 132-33 201-32 57 1 108-6 163-6 44 0 87 0 132 8 82 16 159 54 213 116 48 55 78 127 78 217 0 5-2 10-5 15l-107 137c-1 1-2 3-4 4-31 25-58 31-80 27-12-3-23-8-31-16s-14-17-17-26c-7-19-5-41 5-56 1-1 2-3 3-4l96-97c-2-23-11-44-24-62-18-25-44-45-72-59zM1360 1165h235c7 0 13 3 18 8l172 178c10 10 10 26 0 36-5 5-13 8-20 7l-360 1v-10c17-9 31-23 40-40l261-1-122-127h-175c-19-13-42-20-65-21h-15c5-3 9-7 13-10 7-6 5-4 9-9l8-11zm-636 229-442-1c-14 0-25-11-25-25 0-7 3-13 7-18l73-75c2 3 4 5 6 8 9 11 19 21 31 29l-31 31 380 1v2c-3 16-2 33 2 49z"/><path class="fil0" d="M721 1163h125c-11 19-22 35-35 51h-61c-11-17-20-33-29-51zm640 0h208V908h-107c-4-17-10-34-16-51h149c14 0 25 11 25 25v306c0 14-11 25-25 25h-186c-18-12-40-19-63-19h-15c5-3 9-7 13-10 7-6 5-4 9-9l9-12zM1703 1386v239h-48v-239zM432 1386v239h-48v-239z"/><path class="fil0" d="M368 1059c14-22 34-45 57-63 19-15 39-26 60-34 3-2 83-166 88-193 3-12 5-23 11-34 3-6 9-10 14-12 6-2 12-3 19-1 6 2 12 5 16 10 3 4 6 9 7 14l10 22 13-11c1 0 1-1 2-1 5-3 10-5 15-5 6 0 12 1 17 4s9 8 12 13 4 11 3 17c0 1 0 2-1 4l-10 36c7 5 13 12 18 19 5 9 9 18 10 29l47 33c15 9 19 31 8 45-35 45-88 68-139 32-4 9-6 19-6 28 0 15 3 29 6 43 13 42 22 71 34 99 11 27 25 52 46 85 1 2 5 5 8 8 5 5 11 9 14 15 0 0 0 1 1 1 3 4 4 10 4 15s-1 11-4 16c0 1-1 1-1 2-3 4-6 8-10 10-5 3-10 4-16 4h-52c-5 0-10-1-15-4-4-2-8-6-11-10-1-2-2-4-2-6l-2-10-9-8c-1-1-2-2-3-4l-50-85c-3 11-6 22-9 31 10 5 19 11 27 20 10 11 16 26 16 45 0 8-3 16-9 22s-13 9-22 9H448c-6 0-13-1-20-3s-14-4-20-7c-15-7-30-18-43-34-10-13-19-30-24-51-6-26-7-52-3-78s14-51 28-75zm77-38c-20 16-38 35-50 54-12 20-20 41-24 63s-3 44 2 65c4 16 11 29 18 39 9 12 21 20 31 25 4 2 9 4 15 5 4 1 8 2 12 2h131c0-10-3-17-8-22-7-8-18-13-28-16-1 0-2-1-3-1-8-4-11-13-8-21 5-10 11-31 16-49 3-12 7-23 9-30 1-3 4-6 7-8 8-4 17-2 22 6l68 115c14 12 13 9 17 27h47c-2-2-4-4-7-6-5-5-10-9-14-15-22-34-36-61-48-90s-22-59-35-101v-1c-4-16-8-34-7-52 0-19 5-39 18-58 4-6 11-9 18-7s13 6 19 10c32 23 76 8 95-24l-52-36c-5-3-8-8-8-14 0-8-2-15-6-21s-9-11-16-14-10-11-8-19l12-42-25 20c-1 1-2 2-3 2-8 4-17 0-21-8l-20-42c-1-1-1-2-1-3-2 6-4 13-6 21-3 14-6 30-17 45-14 22-46 104-66 145-20 40-39 25-78 55zM490 352c3-14 8-26 15-36 11-17 27-30 51-38 26-9 54-6 77 5s42 32 51 58c21 60-8 100-46 154-18 26-39 55-57 91-4 7-13 10-20 7-36-18-71-29-101-38-63-19-109-34-130-94-9-26-6-54 5-77s32-42 58-51c24-8 44-8 63-1 12 4 23 11 34 20zm40-20c-8 12-12 29-15 51 0 3-2 6-4 9-6 6-15 6-21 0-16-15-29-26-43-31-13-5-27-4-44 1-19 6-33 20-41 36s-10 36-4 54c16 46 56 59 110 75 28 9 59 18 92 33 17-32 36-59 53-82 33-46 57-81 42-127-6-19-20-33-36-41s-36-10-54-4c-17 6-28 14-35 25zM1494 463c-2-12-4-20-8-27-3-5-9-9-17-12-9-3-18-2-26 2s-14 11-17 20c-8 24 5 42 23 68 9 13 19 26 28 43 18-8 34-13 48-17 30-9 51-16 59-39 3-9 2-18-2-26s-11-14-20-17c-8-3-15-3-21-1-7 3-14 8-23 16-6 6-15 6-21 0-2-2-4-5-4-9zm17-43c3 4 5 9 7 14 4-3 9-5 14-7 13-5 26-5 41 1 17 6 30 18 37 33s9 32 3 49c-13 38-41 47-79 58-17 5-37 11-57 21-7 4-16 1-20-7-10-21-22-37-32-52-23-32-40-57-27-94 6-17 18-30 33-37s32-9 49-3c15 5 25 13 33 24zM406 670c-1-9-3-15-6-20-2-4-6-6-12-8s-13-2-19 1-10 8-12 14c-6 17 4 32 18 51 7 9 14 20 21 32 13-5 25-9 36-13 22-7 39-12 45-29 0-1 0-1 1-2 2-6 1-12-1-18-3-5-7-10-13-12-1 0-1 0-2-1-5-2-10-2-14 0-5 2-10 6-17 12-6 6-15 6-21 0-2-2-4-5-4-9zm19-36c2 3 3 5 4 8 3-2 5-3 8-4 11-4 22-4 34 0 14 5 25 15 31 27s8 27 3 41c-11 32-34 39-65 48-14 4-29 9-45 17-7 4-16 1-20-7-8-16-17-29-25-41-19-26-33-46-22-78 5-14 15-25 27-31s27-8 41-3c13 4 21 11 28 21z"/></g><path style="fill:none" d="M0 0h2048v2048H0z"/></svg>
