<svg xmlns="http://www.w3.org/2000/svg" xmlns:xlink="http://www.w3.org/1999/xlink" width="80.00390625" height="68.9324951171875" viewBox="0 0 80.00390625 68.9324951171875" fill="none">
<path d="M42.1697 0.04L42.1697 13.11L38.2297 13.11L38.2297 0C32.7757 0.237864 27.459 1.78022 22.7197 4.49C34.9039 12.2901 32.1897 28.54 32.1897 28.54C31.2303 34.0216 29.179 38.0995 26.6497 41.14C28.0693 42.9221 32.1137 46.7627 40.5597 46.62C40.5597 46.62 47.1911 47.2255 53.5097 41.43C50.9901 38.3956 48.9551 34.3239 47.9797 28.84C47.9797 28.84 45.2746 12.6119 57.4297 4.81C52.7904 2.04145 47.5602 0.403326 42.1697 0.04ZM5.82 21.57C9.54624 9.73488 17.2334 5.6804 19.85 4.61C17.6582 1.86008 14.2946 0.309868 10.78 0.43C4.61856 0.644461 -0.198623 5.85211 0.01 12.07C0.139422 16.0405 2.34188 19.6504 5.82 21.57ZM60.1201 4.3999C70.0309 9.83522 72.891 18.0897 73.9401 21.5299C77.0712 19.929 79.268 16.9386 79.8501 13.4699C80.8697 7.38902 76.7161 1.62762 70.5801 0.5999C66.6661 -0.0627478 62.6946 1.3777 60.1201 4.3999ZM28.9804 21.2C28.1056 15.7007 25.0972 10.7687 20.6104 7.47C20.1288 7.11503 19.7202 6.83889 19.4004 6.64C14.331 10.3623 10.3719 15.3961 7.9504 21.2L28.9804 21.2ZM71.6405 21.2C69.2966 15.5848 65.5116 10.6867 60.6705 7C60.3662 7.19497 59.9914 7.4522 59.5605 7.77C55.156 11.0058 52.1663 15.8158 51.2305 21.2L71.6405 21.2ZM7.0296 23.67C5.22401 29.1951 4.83478 35.0856 5.8996 40.8C14.0529 40.677 17.2596 35.34 17.2596 35.34L19.4296 37.85C15.8373 42.4527 10.3889 43.6333 6.6096 43.84C6.86946 44.7801 7.17256 45.7036 7.5196 46.61C15.9811 46.3136 21.3425 42.2839 24.6596 38.04C27.8591 33.9544 29.4839 28.8538 29.2396 23.67L7.0296 23.67ZM73.8302 40.05C74.1328 38.195 74.2802 36.3198 74.2802 34.44C74.2802 30.7822 73.7014 27.1455 72.5602 23.67L50.9502 23.67C50.6289 28.9504 52.2575 34.1653 55.5202 38.33C58.746 42.4576 63.9003 46.3862 71.9702 46.86C72.4493 45.6214 72.8588 44.3559 73.1902 43.07C69.4498 42.8008 64.3547 41.5624 60.9202 37.23L63.2602 34.73C63.2602 34.73 66.1719 39.7031 73.8302 40.05ZM38.1202 51.06C33.6543 50.6271 28.7623 48.6527 23.8402 43.96C18.475 48.4617 12.0959 49.5931 8.9502 49.87C13.0258 57.997 20.1386 64.1878 28.7502 67.11C30.9706 66.149 32.9592 64.7262 34.5802 62.93C36.8785 60.3395 38.1397 56.9828 38.1202 53.52L38.1202 51.06ZM42.1904 53.59C42.1691 56.9148 43.3764 60.13 45.5804 62.62C47.2267 64.4551 49.2529 65.9117 51.5204 66.88C59.7523 63.8929 66.5469 57.8968 70.5304 50.1C67.2931 49.7336 61.6389 48.5244 56.7304 44.59C54.6865 46.3077 49.2187 50.3543 42.1904 51.06L42.1904 53.59ZM46.07 68.3601C43.5715 65.6712 41.5619 62.5641 40.14 59.1801C38.7398 62.6053 36.7479 65.7603 34.25 68.4901C38.1683 69.1224 42.1659 69.075 46.07 68.3601Z" fill-rule="evenodd"  fill="url(#linear_fill_5AWBBjqMsc)" >
</path>
<defs>
<linearGradient id="linear_fill_5AWBBjqMsc" x1="-12.6591796875" y1="33.8057861328125" x2="48.9677734375" y2="84.814453125" gradientUnits="userSpaceOnUse">
<stop offset="0" stop-color="#EA3570"  />
<stop offset="0.8799999952316284" stop-color="#138FC9"  />
</linearGradient>
</defs>
</svg>
